# xmcd
#
# Track frame offsets:
#	150
#	16387
#	29885
#	45580
#	56500
#	74462
#	89730
#	99255
#	115800
#	131052
#	149105
#	165402
#	178677
#	196377
#	212627
#	226737
#	245209
#	255970
#
# Disc length: 3499
#
# Revision: 1
# Processed by: cddbd v1.5.1PL0 Copyright (c) Steve Scherf et al.
# Submitted via: VisiTrax 2.9.5.180 - For more info visit www.synapsa.com
# Normalized: r0:DSETVAR1
#
DISCID=080da912
DTITLE=Various Artist - CDX 213 May 1999
DYEAR=1999
DGENRE=
TTITLE0=Trio - After the gold rush
TTITLE1=Roger Springer Band - Ain't nothin' but a cloud
TTITLE2=George Jones - Choices
TTITLE3=Dwight Yoakam - Crazy little thing called love
TTITLE4=Matt king - From your knees
TTITLE5=Alabama/'N Sync - God must have spent a little more time on you
TTITLE6=Tim Wilson - It's a sorry world
TTITLE7=Chad Brock - Lightning does the work
TTITLE8=Stacy Dean Campbell - Makin' good time
TTITLE9=Vince Gill/Patty Loveless - My kind of woman my kind of man
TTITLE10=Graham Brown - Never in a million tears
TTITLE11=Warren Brothers - She wants to rock
TTITLE12=Terri Clark - Unsung hero
TTITLE13=Susan Ashton - You're lucky I love you
TTITLE14=Julie Marshall - He only loves me for my pick-up truck
TTITLE15=Graham Brown - Never in a million tears
TTITLE16=Carroll Brown/Ace Basin - Get off that flippin' phone and drive
TTITLE17=Tim Wilson - Bill Clinton assault weapons
EXTD=
EXTT0=
EXTT1=
EXTT2=
EXTT3=
EXTT4=
EXTT5=
EXTT6=
EXTT7=
EXTT8=
EXTT9=
EXTT10=
EXTT11=
EXTT12=
EXTT13=
EXTT14=
EXTT15=
EXTT16=
EXTT17=
PLAYORDER=
